<svg id="Group_14514" data-name="Group 14514" xmlns="http://www.w3.org/2000/svg" xmlns:xlink="http://www.w3.org/1999/xlink" width="12.436" height="15.459" viewBox="0 0 12.436 15.459">
  <defs>
    <clipPath id="clip-path">
      <rect id="Rectangle_6272" data-name="Rectangle 6272" width="12.436" height="15.459" fill="#797979"/>
    </clipPath>
  </defs>
  <g id="Group_14513" data-name="Group 14513" clip-path="url(#clip-path)">
    <path id="Path_14893" data-name="Path 14893" d="M10.894.065c-.12-.017-.239-.038-.36-.046s-.232,0-.347,0-.219,0-.328,0a2.422,2.422,0,0,0-.414.056,4.778,4.778,0,0,0-.638.175c-.1.035-.2.07-.3.1a1.857,1.857,0,0,0-.337.118C8.091.5,8.017.558,7.939.6c-.1.061-.206.12-.311.178s-.181.095-.272.141a1.455,1.455,0,0,0-.306.229c-.156.14-.292.3-.456.431a1.521,1.521,0,0,0-.2.177,1.479,1.479,0,0,0-.2.317,6.379,6.379,0,0,0-.5,1.236,4.073,4.073,0,0,0-.139.727,3.1,3.1,0,0,0,.024.66c.033.25.083.5.139.742a3.567,3.567,0,0,0,.2.644,1.5,1.5,0,0,0,.378.481c.157.147.308.3.469.442.183.16.374.313.57.457.18.132.357.268.539.4a2.785,2.785,0,0,0,1.213.481c.242.035.484.049.727.071a5.5,5.5,0,0,0,.645.043,2.754,2.754,0,0,0,.665-.081,2.484,2.484,0,0,0,.329-.125c.046-.02.09-.042.135-.064l.068-.034c.021-.01.114-.067.03-.015a.867.867,0,0,1,.142-.055c.047-.018.095-.036.142-.055a2.457,2.457,0,0,0,.356-.167,3.637,3.637,0,0,0,.554-.427,4.778,4.778,0,0,0,.827-.989,2.092,2.092,0,0,0,.278-.616c.049-.2.114-.395.17-.594a4.011,4.011,0,0,0,.139-.743,6.34,6.34,0,0,0-.032-.668,3.361,3.361,0,0,0-.083-.743c-.051-.206-.125-.41-.2-.611a2.46,2.46,0,0,0-.694-1.1c-.093-.077-.194-.144-.292-.214a.548.548,0,0,1-.06-.044c.069.066.009.006-.005-.007-.045-.038-.085-.08-.126-.122a1.426,1.426,0,0,0-.246-.211A1.52,1.52,0,0,0,12.2.622c-.093-.031-.187-.059-.279-.093L11.9.52q-.055-.022.018.008A.211.211,0,0,1,11.855.5a.7.7,0,0,1-.063-.036L11.751.435c.041.033.047.037.018.013a1.247,1.247,0,0,0-.446-.287.5.5,0,0,0-.3-.009.409.409,0,0,0-.288.407.359.359,0,0,0,.719,0V.546a.312.312,0,0,1-.231.3.21.21,0,0,1-.14,0,.268.268,0,0,0,.037.009c.035.008.056.038-.034-.016.019.012.041.02.061.03.042.023.095.081-.008-.015a2.248,2.248,0,0,0,.251.206,1.493,1.493,0,0,0,.323.158c.084.032.17.059.256.086.046.015.093.03.138.047a.412.412,0,0,0,.046.017c-.049-.021-.055-.023-.02-.007.015.007.028.014.042.022l.02.013c.031.022.026.017-.017-.015,0,0,.048.043.052.046.028.027.055.056.083.084a2.233,2.233,0,0,0,.28.239c.04.03.081.058.122.087.012.008.1.06.1.073l-.038-.029.034.029.05.046c.036.035.07.072.1.11.008.01.036.033.037.045l-.027-.035L13,2.111c.028.039.054.078.079.119a2.41,2.41,0,0,1,.133.244l.023.051c.014.031.039.044,0-.012a.565.565,0,0,1,.055.148c.035.1.066.2.1.3s.063.186.088.281c.014.052.025.1.035.157,0,.022.008.044.012.066.016.1,0-.051,0,.025.01.1.012.2.013.3s.014.215.025.323a2.052,2.052,0,0,1,.011.318.83.83,0,0,1-.012.137c.022-.094,0-.005,0,.013q-.009.054-.02.108a4.848,4.848,0,0,1-.164.614c-.028.085-.051.171-.071.258-.011.047-.022.095-.035.142,0,.017-.031.136-.044.137l.018-.042c-.007.014-.013.028-.021.042s-.024.043-.036.064l-.064.108c-.053.086-.107.17-.165.252-.029.041-.058.082-.088.122l-.015.02.01-.013a.285.285,0,0,0-.031.039c-.066.082-.135.161-.207.237a4.822,4.822,0,0,1-.434.4l-.05.04c-.042.034.07-.051,0,0-.041.029-.081.058-.123.086a.963.963,0,0,1-.261.141c.089-.023.014-.006-.008,0l-.059.023-.13.05c-.116.045-.23.093-.341.149-.045.023-.09.044-.135.065-.074.034.058-.022.009,0l-.055.021a1.64,1.64,0,0,1-.274.072c-.086.015.084-.007-.005,0l-.074.007-.14.009c-.108.006-.217.007-.326,0-.2-.009-.4-.041-.595-.056-.1-.007-.194-.015-.29-.024L9.258,7.65c-.091-.009.081.014-.009,0-.052-.009-.1-.017-.156-.028a2.182,2.182,0,0,1-.278-.079l-.14-.05-.068-.027c-.067-.026.067.032,0,0a2.914,2.914,0,0,1-.511-.323c-.166-.126-.345-.24-.505-.374.074.061-.038-.03-.053-.042l-.124-.1c-.082-.068-.162-.139-.241-.21-.143-.13-.28-.267-.42-.4-.034-.031-.067-.063-.1-.1l-.038-.042c-.046-.054.012,0,.007.01s-.061-.106-.067-.117c-.038-.073.028.077,0,0-.008-.023-.017-.045-.025-.068a5.7,5.7,0,0,1-.146-.573c-.023-.1-.044-.2-.062-.3-.008-.046-.016-.091-.023-.137,0-.017-.019-.111,0-.014-.006-.037-.009-.074-.013-.11-.01-.1-.016-.2-.016-.3,0-.05,0-.1,0-.151,0-.023,0-.046,0-.069s.009-.144,0-.043a1.806,1.806,0,0,1,.06-.293c.024-.1.05-.2.078-.3s.053-.178.083-.266a1.669,1.669,0,0,1,.106-.283c-.047.081-.005.013,0-.007s.021-.047.031-.07c.021-.046.044-.093.066-.139.045-.089.094-.176.138-.266.017-.036.035-.071.055-.1l.012-.02c.022-.032.017-.026-.015.016,0-.005.046-.047.051-.052.072-.068.155-.123.229-.188.145-.128.272-.275.418-.4a.253.253,0,0,1,.058-.048L7.619,1.6a.45.45,0,0,1,.039-.028.757.757,0,0,1,.1-.053c.1-.045.187-.1.279-.148s.182-.1.272-.157l.108-.068a1,1,0,0,0,.137-.077c0,.006-.086.029-.023.01.023-.007.045-.014.068-.02.051-.014.1-.026.151-.041.1-.031.2-.067.3-.1A4.488,4.488,0,0,1,9.635.764,1.017,1.017,0,0,1,9.793.735c-.01,0-.083.007-.015,0L9.859.733c.109,0,.219,0,.328,0s.2,0,.3,0c.024,0,.127.025.144.012L10.58.74l.048.007L10.7.758A.394.394,0,0,0,10.98.721a.367.367,0,0,0,.165-.214.364.364,0,0,0-.251-.442" transform="translate(-2.946 -0.007)" fill="#797979"/>
    <path id="Path_14894" data-name="Path 14894" d="M11.455.463a.37.37,0,0,1,.178.011c.015.006.063.048.076.048-.009,0-.031-.03-.038-.036a.791.791,0,0,0-.147-.121,2.041,2.041,0,0,0-.368-.138A1.221,1.221,0,0,0,11.011.18a1.207,1.207,0,0,0-.142-.021c-.015,0-.071-.008-.013,0s.008,0,0,0c-.1-.026-.2-.051-.3-.074a3.273,3.273,0,0,0-.4-.077,2.824,2.824,0,0,0-.321,0c-.233.005-.466,0-.7,0a3.826,3.826,0,0,0-.775.05L8.182.091c-.07.013.066-.008,0,0C8.127.1,8.074.1,8.022.114c-.1.02-.2.068-.3.094a2.513,2.513,0,0,0-.316.1Q7.3.349,7.2.4L7.131.428c-.009,0-.048.021,0,0s0,0-.014,0A1.645,1.645,0,0,0,6.767.6C6.675.663,6.585.73,6.5.8a4.343,4.343,0,0,0-.54.467,4.067,4.067,0,0,0-.441.567c-.055.086-.107.174-.155.265-.022.04-.053.08-.072.121,0,0,.047-.057.021-.029l-.021.026c-.034.041-.067.083-.1.125a1.909,1.909,0,0,0-.265.65,2.546,2.546,0,0,0-.069.376c-.014.115-.009.231-.017.346a4.163,4.163,0,0,0-.018.692,5.648,5.648,0,0,0,.112.736,3.408,3.408,0,0,0,.262.662,4.387,4.387,0,0,0,.3.562,5.053,5.053,0,0,0,.453.562,2.825,2.825,0,0,0,.529.48c.174.116.364.206.547.307a3.831,3.831,0,0,0,.672.276,2.064,2.064,0,0,0,.331.08c.075.011.15.021.225.03l.039,0-.031,0c.029.007.061.009.09.014a4.7,4.7,0,0,0,.743.067c.241,0,.481.007.721.01a5.709,5.709,0,0,0,.711-.013,1.079,1.079,0,0,0,.41-.132c.04-.022.078-.046.117-.069.01-.006.061-.026.063-.035s-.066.022-.029.013l.046-.015a1.835,1.835,0,0,0,.364-.129c.095-.049.187-.1.283-.149a3.235,3.235,0,0,0,.575-.362,3.579,3.579,0,0,0,.494-.474c.052-.059.1-.121.147-.185a.741.741,0,0,0,.045-.064c.019-.033-.017.021-.019.023a.239.239,0,0,0,.031-.038,3.354,3.354,0,0,0,.245-.3,1.752,1.752,0,0,0,.151-.274q.029-.066.056-.132c.015-.038-.012.028-.013.029a.153.153,0,0,0,.015-.032c.024-.049.053-.1.081-.144a1.772,1.772,0,0,0,.213-.652,5.872,5.872,0,0,0,.062-.759c0-.109,0-.218.005-.326a.93.93,0,0,0-.1-.433.462.462,0,0,0-.063-.119s.023.07.015.034c0-.011-.007-.022-.01-.032-.008-.028-.015-.057-.022-.086-.027-.1-.072-.2-.094-.305a1.423,1.423,0,0,0-.033-.139.724.724,0,0,0-.053-.128c-.023-.041-.065-.073-.085-.115.01.022.03.041.041.063.023.044.006.016,0,0s-.015-.05-.024-.074a.812.812,0,0,0-.1-.189.28.28,0,0,0-.035-.055s.031.073.015.038-.026-.064-.04-.1a.848.848,0,0,0-.079-.133c-.064-.1-.129-.2-.19-.3a4.459,4.459,0,0,0-.408-.59,2.163,2.163,0,0,0-.542-.431c-.186-.11-.362-.233-.542-.353a4.635,4.635,0,0,0-.563-.3.367.367,0,0,0-.492.129A.363.363,0,0,0,10.6.859a4.606,4.606,0,0,1,.563.3c.169.113.334.231.51.334.085.05.168.1.249.158s-.057-.053,0,0l.055.049c.042.04.081.083.119.126l.049.058c.056.067-.045-.063.006.008.029.041.059.082.086.124.057.087.107.178.162.266s.116.182.175.273l.045.067a.367.367,0,0,0,.034.058l-.02-.047.045.106a.507.507,0,0,0,.044.074c.013.017.025.038.039.054.047.054-.017-.076,0-.006a.786.786,0,0,0,.073.189c.022.037.1.157.037.049.038.062-.02-.083,0-.006.012.046.022.093.032.139.022.1.063.186.089.282a1.573,1.573,0,0,0,.135.346.288.288,0,0,0,.03.06L13.14,3.88a.3.3,0,0,1,.012.044c0-.015,0-.031-.005-.047,0,.016,0,.032,0,.049s0,.05,0,.075c0,.105,0,.21-.005.315s-.006.22-.014.329c0,.055-.009.109-.015.164,0,.027,0,.055-.009.081.02-.1,0,.008-.006.029a2.179,2.179,0,0,1-.065.294l-.007.023c-.013.037-.01.03.011-.02a.382.382,0,0,1-.026.053c-.024.045-.051.088-.076.132s-.046.082-.066.125-.037.088-.055.131c.038-.091,0-.01,0,.007-.021.046-.044.09-.068.134a.538.538,0,0,1-.1.148l.026-.033-.032.038L12.594,6c-.033.036-.065.073-.095.111s-.079.1-.115.157c-.049.074.051-.056-.008.01-.023.026-.046.053-.069.079-.069.076-.142.149-.215.221-.036.036-.073.071-.111.105l-.058.05.013-.01-.04.028a5.019,5.019,0,0,1-.524.313c-.046.023-.091.047-.136.072-.023.013-.111.078-.135.072l.04-.016L11.1,7.21l-.07.018a1.3,1.3,0,0,0-.163.048,3.1,3.1,0,0,0-.308.161.237.237,0,0,0-.039.02l.046-.019-.041.015a.513.513,0,0,0-.066.017c.057-.007.065-.008.025,0l-.056,0c-.462.018-.923-.005-1.385-.005-.107,0-.212,0-.32-.013-.09-.008.082.013-.007,0l-.077-.012c-.061-.01-.121-.02-.181-.029l-.225-.03c-.09-.011.082.014-.008,0l-.064-.01a2.211,2.211,0,0,1-.319-.087l-.153-.053a.691.691,0,0,1-.151-.056l.039.016-.045-.021-.065-.033c-.05-.026-.1-.054-.149-.081A5.326,5.326,0,0,1,6.8,6.76l-.02-.015c-.031-.023-.026-.019.015.011-.016,0-.044-.036-.056-.047-.039-.035-.076-.072-.112-.109-.079-.08-.155-.163-.229-.248s-.125-.146-.186-.22a.583.583,0,0,1-.048-.06c.051.081.008.008,0-.007-.034-.048-.066-.1-.1-.147a5.6,5.6,0,0,1-.288-.559c-.022-.046-.043-.093-.064-.139-.034-.077.021.055,0,0L5.69,5.166A1.729,1.729,0,0,1,5.6,4.849q-.027-.158-.052-.317c0-.019-.019-.108,0-.009,0-.026-.007-.053-.009-.079-.007-.062-.012-.124-.015-.186-.009-.22.028-.437.034-.656,0-.053,0-.106,0-.16a.227.227,0,0,1,.007-.076c0,.015,0,.031-.006.046,0-.016.005-.033.008-.049a2.826,2.826,0,0,1,.08-.317c.014-.045.027-.09.043-.134l.022-.059c.03-.081-.037.069,0-.007.005-.01.07-.127.072-.125l-.029.037.028-.034c.034-.041.067-.082.1-.125a2.331,2.331,0,0,0,.144-.245q.081-.14.174-.273c.024-.035.049-.068.074-.1.052-.07-.05.06.006-.007l.048-.059c.069-.083.143-.162.22-.238s.146-.134.223-.2l.064-.051.013-.01c.048-.04.1-.076.152-.114a1.947,1.947,0,0,1,.236-.154c.075-.04-.075.028,0,0l.068-.027c.075-.03.148-.061.221-.1A.424.424,0,0,1,7.61.994c-.088.021-.014.006.008,0,.047-.018.095-.035.143-.049.106-.033.213-.057.318-.1A.9.9,0,0,1,8.2.809c.021,0,.107-.016,0,0L8.348.787C8.4.779,8.452.768,8.5.758l.08-.016c.022,0,.136-.036.038-.008A.657.657,0,0,1,8.787.725h.171l.365,0c.215,0,.43,0,.645-.006.052,0,.1,0,.155,0,.085,0-.077-.021,0,0,.025.007.052.012.077.017l.329.075c.04.009.08.021.121.032.02.005.039.009.06.012-.06-.01.145.018.144.017L10.809.87l.045.011c.025.008.049.017.073.026l.18.062L11.184,1c.086.029-.063-.035-.01,0-.085-.051-.049-.037-.023-.012l.038.037a.5.5,0,0,0,.457.136A.361.361,0,0,0,11.9.714a.369.369,0,0,0-.442-.251" transform="translate(-2.554 0)" fill="#797979"/>
    <path id="Path_14895" data-name="Path 14895" d="M4.085,14.254a.5.5,0,0,0-.592-.065,1.681,1.681,0,0,0-.247.163,3.064,3.064,0,0,0-.331.232c-.109.1-.2.209-.317.3a4.052,4.052,0,0,0-.691.753c-.186.26-.355.532-.536.8s-.349.565-.519.851a3.278,3.278,0,0,0-.419.968c-.036.164-.083.326-.109.493-.03.191-.05.384-.068.576-.033.343-.078.686-.1,1.031s-.01.7-.01,1.045c0,.152,0,.3-.007.456a1.046,1.046,0,0,0,.1.541.6.6,0,0,0,.525.3c.056,0,.112,0,.168-.006a2.015,2.015,0,0,1,.238.014,4.785,4.785,0,0,0,.518.023,3.907,3.907,0,0,1,.524.022c.167.02.334.042.5.06h.014q.061.007-.017,0a.236.236,0,0,1,.053.009l.117.021a2.508,2.508,0,0,0,.318.04c.356.017.713,0,1.069,0,.713-.005,1.426,0,2.138,0,.174,0,.348,0,.522,0s.337.009.506,0,.342-.04.513-.058.338-.011.507-.022.337-.017.5-.034a2.139,2.139,0,0,0,.293-.053c.041-.01.081-.021.122-.029a.262.262,0,0,0,.049-.009l-.033,0,.038,0h.05c.095-.006-.117-.018.03,0a.724.724,0,0,0,.152.011,1.829,1.829,0,0,0,.181-.026l.012,0c.04-.007.032-.006-.022,0,.008-.01.067,0,.077,0l.105-.01.134-.018.013,0-.019,0a.32.32,0,0,1,.1-.009c.049,0,.1,0,.147,0a1.8,1.8,0,0,0,.271-.009c.05-.007.1-.015.149-.025.072-.016-.021,0-.02,0s.064,0,.075,0v-.718h-.027a.359.359,0,1,0,0,.718h.027a.359.359,0,0,0,0-.718,1.168,1.168,0,0,0-.3.037c-.043.009-.018-.013.02,0a.32.32,0,0,0-.051,0c-.045,0-.09,0-.134,0a2.037,2.037,0,0,0-.239.007c-.058.006-.115.015-.173.023s.01,0,.018,0a.364.364,0,0,1-.078.008,2.53,2.53,0,0,0-.3.035c-.049.009,0-.014.022,0a.415.415,0,0,0-.053,0c-.063,0,.005,0,.018,0-.048-.006-.1-.015-.148-.017a2.117,2.117,0,0,0-.515.086l-.062.012c-.049.009.07,0,.021,0s-.081,0-.121,0c-.083,0-.166.012-.249.018-.165.013-.33.008-.5.019s-.324.037-.486.055a3.807,3.807,0,0,1-.491.017c-.681-.012-1.362,0-2.042,0-.341,0-.681,0-1.022,0-.169,0-.338.005-.507,0-.084,0-.169,0-.253,0l-.109-.005c-.066,0,.007,0,.017,0a.717.717,0,0,1-.078-.013c-.182-.031-.364-.054-.547-.076-.163-.019-.326-.046-.489-.056s-.332-.005-.5,0-.326-.023-.489-.035a1.609,1.609,0,0,0-.2,0l-.075,0H.76c-.067,0,.085.02.027,0s.07.037.031.014.062.055.031.024.056.079.015.016c-.025-.039.024,0,.013.03a.255.255,0,0,0-.02-.082c.026.05.006.069.006.03,0-.023,0-.045,0-.067,0-.14.008-.28.008-.419v-.507c0-.331,0-.662.034-.991s.063-.663.1-.994c0-.023.005-.046.008-.068s.011-.072,0-.021,0-.027.006-.032.006-.035.009-.052c.016-.078.036-.156.054-.233.037-.153.065-.308.116-.458.007-.02.015-.04.023-.061.015-.048-.028.059-.006.013s.034-.073.052-.108c.037-.072.076-.143.115-.212.08-.14.165-.277.247-.416s.157-.277.243-.41.177-.262.267-.392.173-.261.258-.392q.062-.095.128-.187l.059-.081c.038-.051-.005.005-.01.013.014-.02.031-.039.046-.059a3.067,3.067,0,0,1,.311-.333c.112-.1.235-.193.341-.3.047-.048.091-.1.141-.144l.03-.026c.042-.038-.022.017-.027.019.03-.017.056-.039.085-.057.079-.047.152-.1.228-.152l.062-.04c.007,0,.06-.025.062-.033s-.091.033-.046.021-.063.006-.059.006c.047,0-.067-.012-.061-.011L3.624,14.8c-.055-.048-.071-.06-.047-.035a.363.363,0,0,0,.508,0,.367.367,0,0,0,0-.508" transform="translate(-0.076 -7.497)" fill="#797979"/>
    <path id="Path_14896" data-name="Path 14896" d="M19.953,15.291a.223.223,0,0,0,.039,0s-.081-.016-.047-.006a.255.255,0,0,0,.065.017s-.071-.036-.042-.017c.01.007.023.011.033.017s.038.024.058.036c.048.032-.063-.052,0,0l.052.048c.036.035.07.073.1.111.149.167.308.325.453.495.007.007.031.042,0,0l.009.013c.014.02.028.04.041.06.032.05.062.1.091.154a1.4,1.4,0,0,0,.234.329c-.053-.049-.032-.044-.017-.019l.018.028c.013.022.024.045.036.068.029.056-.026-.069,0,.006.011.028.021.056.03.085.033.1.06.2.1.3.018.05.041.1.061.148s-.021-.065-.008-.017c0,.016.011.032.016.048.02.065.034.131.049.2s.022.126.039.186a.644.644,0,0,0,.061.145.3.3,0,0,0,.018.026c.045.067.011.053-.007-.088a.391.391,0,0,0,.106.254.362.362,0,0,0,.254.105c.175-.008.383-.159.359-.359a.61.61,0,0,0-.1-.283c-.009-.013-.029-.054-.007,0s.006.013,0,0c-.007-.034-.013-.069-.02-.1a2.226,2.226,0,0,0-.13-.438c-.009-.023-.015-.062.009.022,0-.011-.008-.021-.012-.031s-.018-.049-.026-.074c-.02-.057-.036-.115-.054-.173a1.848,1.848,0,0,0-.159-.384c-.014-.022-.028-.043-.044-.064.02.027-.1-.121-.1-.126s.051.072.012.015l-.02-.03c-.021-.03-.04-.061-.058-.091a3.4,3.4,0,0,0-.222-.341c-.154-.2-.34-.375-.507-.563a1.055,1.055,0,0,0-.772-.424.359.359,0,1,0,0,.718" transform="translate(-10.402 -7.737)" fill="#797979"/>
    <path id="Path_14897" data-name="Path 14897" d="M3.824,14.022a.967.967,0,0,0-.505.154.808.808,0,0,0-.2.158c.034-.045.041-.031.014-.013l-.04.027c-.052.036-.1.073-.152.113a2.755,2.755,0,0,0-.311.312c-.048.052-.1.1-.143.158-.022.025-.043.051-.064.077a.841.841,0,0,0-.072.092c.04-.069.016-.023,0,0-.042.043-.089.079-.129.123a1.031,1.031,0,0,0-.156.232c-.063.127-.131.25-.2.375-.148.278-.31.546-.447.829-.067.138-.132.278-.2.417-.075.159-.158.316-.22.48a6.553,6.553,0,0,0-.19.841,2.155,2.155,0,0,0-.073.524c0,.035,0,.069,0,.1,0,.063,0-.008,0-.019a.415.415,0,0,0-.008.05,2.5,2.5,0,0,0-.037.3c-.013.329-.01.658-.006.987S.7,21,.7,21.333c0,.16,0,.321,0,.481a.753.753,0,0,0,.151.562.57.57,0,0,0,.472.152c.166,0,.331,0,.5,0a8.516,8.516,0,0,1,.954.015l.22.027.055.007c.067.008,0,0-.013,0,.046.005.092.013.137.02.159.023.317.049.474.083.338.072.682.1,1.025.147a8.387,8.387,0,0,0,.97.077c.321,0,.642-.005.963-.005H9.075a4.209,4.209,0,0,0,.474-.009,7.432,7.432,0,0,1,.959-.032c.159,0,.317.005.476.005a.359.359,0,1,0,0-.718c-.317,0-.635-.012-.952-.008a4.246,4.246,0,0,0-.457.031,3.613,3.613,0,0,1-.445.013H7.222c-.319,0-.638,0-.957,0s-.623.011-.933-.006-.618-.063-.926-.1l-.221-.026-.055-.006c-.078-.008.014,0,.014,0l-.135-.023c-.152-.029-.3-.065-.456-.089a9.671,9.671,0,0,0-.985-.126c-.307-.017-.617,0-.924,0a3.978,3.978,0,0,0-.423,0c-.051.005.046.008.049.009-.049-.011.046.022.046.021a.244.244,0,0,1,.085.083c.046.072.016.056.013.028-.009-.062,0,.026,0,.03a.368.368,0,0,0,0-.045c0-.038,0-.076,0-.114.011-.309,0-.62,0-.929s-.009-.64-.009-.96q0-.233.006-.465c0-.038,0-.075,0-.113,0-.018,0-.036,0-.054,0-.064,0,.008,0,.019a.7.7,0,0,0,.019-.113c.009-.061.019-.123.023-.184s0-.138,0-.207,0,.012,0,.017a.277.277,0,0,0,.009-.052c.008-.043.017-.087.026-.13.03-.139.063-.276.088-.417a3.587,3.587,0,0,1,.086-.4.43.43,0,0,1,.035-.1s-.039.082-.008.02l.023-.046.1-.209c.129-.273.255-.55.4-.817s.3-.508.429-.772c.027-.055.052-.111.083-.164.007-.013.015-.025.023-.037.03-.051-.009.018-.016.021.025-.01.059-.058.079-.077s.044-.04.065-.062l.029-.035.028-.037,0,0a.911.911,0,0,1,.138-.16c.1-.106.189-.216.293-.313l.038-.034c.011-.009.056-.04.013-.012s0,0,.013-.008l.04-.028a1.728,1.728,0,0,0,.213-.165c.051-.048-.056.036-.015.011.013-.007.024-.016.037-.024l.04-.022c.015-.008.058-.018.009-.006s0,0,.01,0l.043-.012c.015,0,.065-.012.006,0s0,0,.015,0a.359.359,0,1,0,0-.718" transform="translate(-0.363 -7.444)" fill="#797979"/>
    <path id="Path_14898" data-name="Path 14898" d="M3.276,14.1a.691.691,0,0,0-.337.059c-.053.025-.1.061-.149.09a3.014,3.014,0,0,0-.4.261,2.582,2.582,0,0,0-.264.273.392.392,0,0,1-.028.028c-.015.015-.027.043,0,0l.019-.015-.037.023-.035.026a1.519,1.519,0,0,0-.2.174,1.422,1.422,0,0,0-.159.2l-.024.038c-.028.046.015-.016.015-.016s-.069.074-.082.086a1.777,1.777,0,0,0-.3.365c-.075.123-.149.245-.23.364-.041.06-.082.119-.121.18-.02.03-.038.061-.057.092a.468.468,0,0,0-.061.1c.008-.037.044-.054.016-.023l-.029.032-.057.065a.958.958,0,0,0-.148.212,1.1,1.1,0,0,0-.073.253,1.7,1.7,0,0,1-.075.216A1.562,1.562,0,0,0,.4,17.4c-.016.075-.027.148-.05.221-.045.146-.078.295-.11.444-.071.329-.146.652-.188.986A7.091,7.091,0,0,0,0,19.966c0,.175,0,.352,0,.527a3.634,3.634,0,0,0,.068.587c.008.046.018.091.027.137a.223.223,0,0,1,.009.052c-.006-.047-.007-.058,0-.03,0,.013,0,.026,0,.039.007.083.007.165.007.248a1.806,1.806,0,0,0,.01.247c0,.04.011.081.016.12,0,.013,0,.025.005.038l0-.034c.016.023.008.1.009.128a.365.365,0,0,0,.359.359.366.366,0,0,0,.359-.359,2.216,2.216,0,0,0-.029-.273c-.009-.065,0,.012,0,.021,0-.016,0-.034-.006-.05,0-.043-.006-.086-.006-.13A3.144,3.144,0,0,0,.8,21.1c-.01-.072-.027-.143-.041-.215-.007-.036-.013-.072-.019-.108a.524.524,0,0,1-.008-.054c0,.1,0,0,0-.014a4.087,4.087,0,0,1-.015-.442c0-.3-.008-.6.014-.9.005-.072.012-.143.019-.214q.006-.053.013-.107c.008-.07,0,.008,0,.015a.318.318,0,0,0,.012-.08c.022-.141.049-.281.083-.419.037-.153.069-.308.1-.462s.083-.275.11-.416a2.642,2.642,0,0,1,.123-.417,1.113,1.113,0,0,0,.05-.189c0-.015.007-.03.009-.045.008-.045.019,0-.015.025.007,0,.067-.106.029-.051s.026-.027.035-.037.038-.043.057-.065a1.483,1.483,0,0,0,.15-.213c.076-.129.163-.25.246-.372s.14-.233.214-.347c.027-.042-.013,0-.013.015a.242.242,0,0,1,.03-.036c.022-.023.045-.045.068-.067a1.63,1.63,0,0,0,.141-.144,1.626,1.626,0,0,0,.1-.139l.024-.038.019-.028c.015-.022.008-.013-.021.028.008,0,.14-.149.144-.143s-.075.048-.021.016c.016-.009.031-.019.046-.029a1,1,0,0,0,.129-.1c.047-.045.084-.1.128-.148s.113-.1.165-.153c-.006.007-.068.048-.017.015l.048-.033c.029-.02.059-.038.089-.056.058-.034.118-.063.174-.1a.794.794,0,0,0,.089-.053l-.059.016c-.068.014-.078.019-.033.016a.493.493,0,0,0,.075,0,.363.363,0,0,0,.359-.359.366.366,0,0,0-.359-.359" transform="translate(0 -7.485)" fill="#797979"/>
    <path id="Path_14899" data-name="Path 14899" d="M20.975,15.365l.083,0c.017,0,.1.009.037,0-.033-.006-.036-.006-.007,0A.188.188,0,0,1,21,15.3a.261.261,0,0,1,.027.029c-.033-.045-.042-.055-.026-.032a1.051,1.051,0,0,0,.237.294,2.387,2.387,0,0,1,.252.235l.049.055.032.038c.024.03.021.026-.01-.014a.621.621,0,0,1,.1.143c.015.024.03.05.042.075.042.083-.018-.052.009.016s.058.151.092.223a.881.881,0,0,0,.088.145c.014.019.062.109.021.02.007.033.008.034,0,0s0-.029,0,0,.009.082.015.122.006.035,0-.02a.682.682,0,0,0,.006.076c.006.083.012.164.025.246a1.162,1.162,0,0,0,.174.365v-.363L22.1,17a.362.362,0,0,0,.129.492.369.369,0,0,0,.492-.129l.024-.036a.361.361,0,0,0,0-.363,1.435,1.435,0,0,0-.094-.148q-.026-.051.008.025a.365.365,0,0,1-.011-.046c.006.055.007.062,0,.022,0-.016,0-.033,0-.05-.006-.083-.014-.164-.025-.246-.007-.039-.006-.033,0,.018,0-.017,0-.035,0-.052a.818.818,0,0,0-.03-.172.75.75,0,0,0-.114-.2c-.019-.027-.033-.056-.049-.085s-.014-.03.006.018L22.418,16a1.936,1.936,0,0,0-.2-.392,2.918,2.918,0,0,0-.547-.577q-.037-.043.017.024l-.023-.035c-.015-.023-.029-.048-.044-.071a.77.77,0,0,0-.134-.162.582.582,0,0,0-.349-.139c-.056,0-.112,0-.167,0a.359.359,0,1,0,0,.718" transform="translate(-10.945 -7.775)" fill="#797979"/>
    <path id="Path_14900" data-name="Path 14900" d="M21.288,15.952c.218.221.413.46.641.672.053.049.1.1.155.15.022.023.044.046.065.069s.07.062.077.091c-.008-.034-.037-.051-.013-.015l.034.049c.02.03.039.062.057.094.038.068.074.139.107.211l.022.048c.036.079-.021-.053,0,0s.03.073.043.11c.028.074.054.148.078.222.048.15.091.3.132.454s.081.31.111.468c.015.078.027.156.039.235,0,.021.017.065,0-.018a.492.492,0,0,1,.006.052c.005.044.01.087.014.13.03.326.016.652.038.977.011.168.03.336.051.5a3.234,3.234,0,0,1,.018.486c-.008.333-.017.668,0,1,0,.076.008.151.008.226,0,.039,0,.078,0,.118,0,.07,0-.015,0-.02a.412.412,0,0,0-.018.072,1.352,1.352,0,0,0-.032.281v.013c0,.041,0,.034,0-.022.01.011-.014.1-.016.118,0,.038-.006.076-.009.115,0,.015,0,.031,0,.046,0,.08.019-.081,0,0,0,.014-.008.029-.01.043-.013.071.034-.069,0-.009l-.014.03c-.016.038-.036.035.032-.033a.334.334,0,0,1,.119-.071c-.048.02.082,0,.012,0-.088,0-.175,0-.263-.008a.847.847,0,0,1-.129-.013c.084.019.038.006.018,0l-.078-.013c-.349-.066-.768-.2-1.072.059a.361.361,0,0,0,0,.508.369.369,0,0,0,.508,0l-.051.039c-.062.023-.079.031-.052.022.006,0,.036-.014.04-.01s-.1.007-.043.007h.037c.057,0,.114.005.171.009a.271.271,0,0,0,.038,0c-.076,0-.047-.008-.02,0l.126.029c.081.02.162.035.244.047a2.822,2.822,0,0,0,.552.038.515.515,0,0,0,.344-.127.538.538,0,0,0,.114-.176.967.967,0,0,0,.087-.33c0-.035.007-.069.009-.1s.016-.157,0-.041a1.525,1.525,0,0,0,.019-.184.318.318,0,0,1,0-.064s-.021.092,0,.022a1.353,1.353,0,0,0,.049-.318c.006-.16-.01-.321-.01-.482,0-.18,0-.361,0-.541,0-.163.011-.325.008-.487s-.031-.347-.049-.52c-.035-.34-.024-.679-.044-1.019a6.568,6.568,0,0,0-.429-1.968,3.471,3.471,0,0,0-.259-.557,2.282,2.282,0,0,0-.358-.441c-.125-.123-.257-.237-.376-.366s-.24-.275-.369-.4a.359.359,0,1,0-.508.508" transform="translate(-11.248 -8.144)" fill="#797979"/>
    <path id="Path_14901" data-name="Path 14901" d="M23.54,19.866a1.5,1.5,0,0,0,.042.31c.007.031.015.062.021.093a.721.721,0,0,1,.014.071c0-.016,0-.031-.006-.047,0,.016,0,.033,0,.049a4.977,4.977,0,0,0,.061.565c0,.006.014.091.005.03s0,.025,0,.031c0,.04.007.081.008.122,0,.1-.008.195,0,.292a4.527,4.527,0,0,0,.061.545c.013.082.032.163.048.245l0,.013c.007.041.007.034,0-.02a.215.215,0,0,1,0,.051c0,.047,0,.094,0,.141,0,.178,0,.356,0,.534V24c0,.2,0,.4,0,.6,0,.04,0,.08,0,.121,0,.021,0,.041,0,.061s0,.024,0,.037c.008-.052.01-.064,0-.037a1.126,1.126,0,0,0-.044.326.359.359,0,0,0,.718,0c0-.023,0-.047,0-.07s.017-.056-.006.032c.009-.036.016-.073.024-.109a1.241,1.241,0,0,0,.017-.314c-.006-.171,0-.342,0-.513v-1.1c0-.182,0-.365,0-.547a2.54,2.54,0,0,0-.042-.569c-.008-.043-.018-.086-.026-.129a.241.241,0,0,0-.009-.052c.02.032.008.061,0,.019-.01-.087-.023-.175-.031-.262-.016-.175.007-.35-.011-.525-.013-.119-.032-.237-.05-.356,0-.017-.005-.034-.008-.052-.012-.082.006.067,0-.008,0-.053-.009-.106-.01-.159a1.639,1.639,0,0,0-.039-.327c-.009-.043-.02-.085-.029-.129l-.008-.047c.007.056.008.064,0,.023,0-.016,0-.032,0-.049a.359.359,0,1,0-.718,0" transform="translate(-12.498 -10.356)" fill="#797979"/>
    <path id="Path_14902" data-name="Path 14902" d="M22.767,30.755l-.024-.008.158.6.023-.021-.072.056a.231.231,0,0,1,.042-.023l-.086.036a.354.354,0,0,1,.066-.016l-.1.013a1.21,1.21,0,0,0,.3-.046,1.324,1.324,0,0,0,.175-.083,1,1,0,0,1,.1-.054l-.086.036a.284.284,0,0,1,.065-.019l-.1.013a.176.176,0,0,1,.035,0v-.718a.76.76,0,0,0-.189.025.927.927,0,0,0-.14.044.854.854,0,0,0-.262.149.441.441,0,0,0-.147.321l.013.1a.271.271,0,0,0,.064.122.376.376,0,0,0,.187.129.608.608,0,0,0,.253.025.857.857,0,0,1,.173-.008l-.1-.013a.287.287,0,0,1,.059.015l-.086-.036.019.01-.073-.056a.084.084,0,0,1,.013.013l-.056-.073a.036.036,0,0,1,.006.009l-.036-.086a.031.031,0,0,1,0,.009l-.013-.1a.054.054,0,0,1,0,.015c0-.032.009-.063.013-.1a.105.105,0,0,1-.005.016l.036-.086a.128.128,0,0,1-.014.022l.056-.073a.223.223,0,0,1-.034.033l.073-.056a.391.391,0,0,1-.071.042L23.1,30.9a.3.3,0,0,1-.07.019l.1-.013a.377.377,0,0,1-.08,0l.1.013c-.055-.008-.108-.024-.162-.037s-.134-.023-.2-.031a.769.769,0,0,0-.127-.006.644.644,0,0,0-.278.069l-.073.056a.266.266,0,0,0-.074.116.351.351,0,0,0-.018.234.4.4,0,0,0,.284.276.533.533,0,0,0,.275-.011,1.887,1.887,0,0,1,.191-.062l-.1.013a1.266,1.266,0,0,1,.183.01.339.339,0,0,0,.044,0,.658.658,0,0,0,.131-.019.454.454,0,0,0,.214-.129.385.385,0,0,0,.106-.254.365.365,0,0,0-.106-.254.361.361,0,0,0-.254-.106.352.352,0,0,0-.254.106l-.016.016.073-.056a.163.163,0,0,1-.026.015l.085-.036a.2.2,0,0,1-.038.01l.1-.013a.638.638,0,0,1-.146-.006.567.567,0,0,0-.208.015,1.765,1.765,0,0,1-.222.069l.1-.013a.163.163,0,0,1-.034,0l.1.013-.017,0,.085.036-.006,0,.073.056a.015.015,0,0,1-.005-.006l.056.073,0-.007.036.086v0l-.165.406.006,0-.086.037a.214.214,0,0,1,.053-.014l-.1.013a.717.717,0,0,1,.182.006l-.1-.013a2.812,2.812,0,0,0,.39.068.63.63,0,0,0,.523-.278.416.416,0,0,0,.048-.334.435.435,0,0,0-.3-.288.651.651,0,0,0-.241-.021.874.874,0,0,1-.175.008l.1.013a.3.3,0,0,1-.054-.013l.264.346v0l-.013.1a.081.081,0,0,1,0-.018l-.036.086a.13.13,0,0,1,.01-.017l-.056.073a.217.217,0,0,1,.03-.029l-.073.056a.456.456,0,0,1,.1-.053l-.086.037a.833.833,0,0,1,.2-.055l-.1.013a.256.256,0,0,1,.042,0,.359.359,0,0,0,.254-.613.4.4,0,0,0-.254-.105.176.176,0,0,0-.035,0,.651.651,0,0,0-.128.02.954.954,0,0,0-.157.066c-.052.027-.1.061-.155.084l.086-.036a.334.334,0,0,1-.083.021l.1-.013c-.078.009-.155.012-.233.028a.54.54,0,0,0-.27.149.362.362,0,0,0-.092.349.368.368,0,0,0,.25.251l.024.008a.359.359,0,0,0,.406-.528.4.4,0,0,0-.215-.165" transform="translate(-11.787 -16.203)" fill="#797979"/>
  </g>
</svg>
