<svg xmlns="http://www.w3.org/2000/svg" width="16.393" height="13.625" viewBox="0 0 16.393 13.625">
  <g id="Group_14941" data-name="Group 14941" transform="translate(-271.045 -1612.174)">
    <path id="Path_14903" data-name="Path 14903" d="M.481.843C1.4.863,2.312.777,3.23.792c.453.007.906.013,1.359.021.434.007.87.032,1.3,0C6.3.785,6.7.657,7.106.652,7.554.647,8,.671,8.449.682s.913,0,1.367.026A2.851,2.851,0,0,0,10.4.7a3.855,3.855,0,0,1,.652-.076c.879.017,1.758.026,2.637.046.453.011.907.024,1.361.022.132,0,.292-.026.381.094a.71.71,0,0,1,.084.4c.013.447.072.891.077,1.338s-.014.895-.027,1.342a19.309,19.309,0,0,0,.021,2.68c.027.249.013.5.035.746.019.216.063.429.072.646.02.5-.018,1.017-.026,1.521s-.03,1.037-.009,1.554c.02.5.065,1,.058,1.5a.184.184,0,0,0,.368,0c.006-.468-.032-.933-.054-1.4s-.007-.911,0-1.366c.008-.475.015-.95.026-1.424a4.439,4.439,0,0,0-.019-.649,5.359,5.359,0,0,1-.058-.648c0-.439-.085-.872-.086-1.312,0-.485.012-.969.027-1.453.015-.46.031-.92.038-1.38s-.034-.919-.062-1.382a1.728,1.728,0,0,0-.168-.934C15.511.28,15.15.328,14.831.327c-.929,0-1.858-.034-2.786-.048a8.7,8.7,0,0,0-1.347,0,3.734,3.734,0,0,1-.614.079c-.231,0-.461-.022-.692-.026C8.936.323,8.481.316,8.025.3A6.85,6.85,0,0,0,6.7.317c-.248.041-.487.1-.738.125a6.924,6.924,0,0,1-.728.017Q4.445.443,3.659.431C3.129.423,2.6.413,2.073.434S1.012.487.481.476a.184.184,0,0,0,0,.368" transform="translate(271.109 1612.271)" fill="#797979" stroke="#797979" stroke-width="0.5"/>
    <path id="Path_14904" data-name="Path 14904" d="M15.746,12.951c-.917-.02-1.832.067-2.749.051-.453-.007-.906-.013-1.359-.021-.434-.007-.87-.032-1.3,0-.41.03-.8.157-1.215.162-.447.005-.895-.019-1.343-.029s-.913,0-1.367-.026a2.851,2.851,0,0,0-.58.006,3.856,3.856,0,0,1-.652.076c-.879-.017-1.758-.026-2.637-.047-.453-.01-.907-.023-1.361-.021-.132,0-.292.026-.381-.094a.71.71,0,0,1-.084-.4C.7,12.159.644,11.715.639,11.268s.014-.895.027-1.342a19.309,19.309,0,0,0-.02-2.68C.619,7,.633,6.748.611,6.5.592,6.283.547,6.07.539,5.853c-.02-.5.018-1.017.026-1.521S.594,3.3.574,2.778c-.02-.5-.065-1-.058-1.5a.184.184,0,0,0-.368,0c-.006.468.032.933.054,1.4s.007.911,0,1.366c-.008.475-.015.95-.026,1.424a4.439,4.439,0,0,0,.019.649,5.36,5.36,0,0,1,.058.648c0,.44.085.872.086,1.312,0,.485-.012.969-.027,1.453-.015.46-.031.92-.038,1.38s.034.919.062,1.382a1.728,1.728,0,0,0,.168.934c.212.293.573.244.892.246.928,0,1.857.034,2.786.048a8.707,8.707,0,0,0,1.347,0,3.688,3.688,0,0,1,.613-.079c.231,0,.461.022.692.026.456.007.912.014,1.368.029a6.851,6.851,0,0,0,1.327-.015c.248-.041.487-.1.738-.125a6.821,6.821,0,0,1,.728-.017q.786.015,1.573.027c.529.008,1.057.018,1.585,0s1.061-.053,1.593-.042a.184.184,0,0,0,0-.368" transform="translate(271.205 1611.752)" fill="#797979" stroke="#797979" stroke-width="0.5"/>
    <path id="Path_14905" data-name="Path 14905" d="M0,1.293a4.514,4.514,0,0,0,.053,1c.036.159.047.316.068.478s.063.339.079.511c.031.348.006.707.006,1.057V5.466c0,.733.009,1.465,0,2.2A7.646,7.646,0,0,0,.245,9.5c.151.661-.007,1.339.117,2a2.943,2.943,0,0,1,.021.795.81.81,0,0,0,.1.615.844.844,0,0,0,.259.154c.118.057.213.147.329.207A2.986,2.986,0,0,0,2,13.424a6.326,6.326,0,0,0,1.029.106c.363.009.726.01,1.089.008,1.486-.009,2.972-.041,4.458-.036.178,0,.359-.006.536.006s.341.06.512.084a8.138,8.138,0,0,0,1.042.018,10.559,10.559,0,0,0,2.179-.262,4.8,4.8,0,0,1,1.818.056.84.84,0,0,0,.97-.447,2.815,2.815,0,0,0,.157-1.178q0-1.094,0-2.187c0-.363,0-.726,0-1.088,0-.333.036-.666.026-1s-.1-.641-.126-.967a10.072,10.072,0,0,1-.012-1.064q.012-.511.024-1.023a6.235,6.235,0,0,0-.1-.973,5.927,5.927,0,0,1-.118-.879c0-.287.042-.574.031-.862A1.5,1.5,0,0,0,15.329,1,.181.181,0,0,0,15.17.911a.258.258,0,0,0-.236.145l.336.142c.035-.2-.025-.338-.228-.39a.184.184,0,0,0-.1.355l.085.022L14.9,1.056c.005.014.01.029.014.044-.032.188.239.345.336.142l-.081.038-.159-.091c.278.46.094,1.066.114,1.571.011.288.1.567.133.852a5.66,5.66,0,0,1,.075.936,16.752,16.752,0,0,0-.009,1.99c.026.314.114.62.125.934s-.02.623-.024.935c-.01.693,0,1.388,0,2.081,0,.577.023,1.158-.008,1.734-.015.285-.051.743-.393.823a1.892,1.892,0,0,1-.7-.077,5.088,5.088,0,0,0-.874-.068,5.668,5.668,0,0,0-.915.132c-.342.062-.688.118-1.032.165a7.561,7.561,0,0,1-1.059.043,5.71,5.71,0,0,1-1.035-.06,5.443,5.443,0,0,0-.982-.048c-.349,0-.7,0-1.048,0-.712,0-1.425.006-2.138.018s-1.406.023-2.108.009a5.6,5.6,0,0,1-1.008-.089c-.3-.059-.648.012-.915-.146-.1-.058-.182-.133-.285-.183-.086-.041-.16-.051-.186-.141a2.107,2.107,0,0,1,.032-.637c.017-.309-.1-.6-.1-.909,0-.322.02-.643.008-.965A7.941,7.941,0,0,0,.558,9.2a4.44,4.44,0,0,1-.012-.9c.036-.666.029-1.332.029-2q0-1.052,0-2.105A7.727,7.727,0,0,0,.554,3.154c-.04-.3-.065-.606-.131-.9A4.392,4.392,0,0,1,.37,1.293a.184.184,0,0,0-.367,0" transform="translate(271.295 1611.933)" fill="#797979" stroke="#797979" stroke-width="0.5"/>
    <path id="Path_14906" data-name="Path 14906" d="M1,.677A2.291,2.291,0,0,0,1.65.638,2.66,2.66,0,0,1,2.193.476a8.947,8.947,0,0,1,1.432.04,6.788,6.788,0,0,0,.739.068,4.458,4.458,0,0,1,.76.02,9.662,9.662,0,0,0,1.5.074c.537,0,1.074,0,1.611,0a3.125,3.125,0,0,0,.7-.046A4.533,4.533,0,0,1,9.58.5c.469-.038.938-.124,1.409-.129.531-.005,1.062,0,1.593,0h.956A4.343,4.343,0,0,1,14.3.391c.183.033.345.123.53.149.082.011.357.006.384.106a.184.184,0,0,0,.355-.1c-.094-.337-.446-.323-.726-.375-.171-.031-.323-.117-.5-.145A4.634,4.634,0,0,0,13.611,0H11.92a12.582,12.582,0,0,0-1.593.051A8.877,8.877,0,0,0,8.968.241,2.525,2.525,0,0,1,8.239.31c-.292,0-.584,0-.876,0C6.812.31,6.256.33,5.7.3,5.457.287,5.217.233,4.972.211c-.269-.024-.539.02-.808,0C3.872.192,3.585.139,3.293.123S2.707.1,2.414.1A1.74,1.74,0,0,0,1.775.2a1.407,1.407,0,0,1-.35.113A3.425,3.425,0,0,1,1,.31.184.184,0,0,0,1,.677" transform="translate(270.791 1612.424)" fill="#797979" stroke="#797979" stroke-width="0.5"/>
    <path id="Path_14907" data-name="Path 14907" d="M26.509,33.072h.926a.184.184,0,0,0,0-.368h-.926a.184.184,0,0,0,0,.368" transform="translate(255.15 1592.369)" fill="#797979" stroke="#797979" stroke-width="0.5"/>
    <rect id="Rectangle_6277" data-name="Rectangle 6277" width="1.293" height="0.368" transform="translate(281.477 1625.072)" fill="#797979" stroke="#797979" stroke-width="0.5"/>
    <path id="Path_14908" data-name="Path 14908" d="M1.263,11a1.863,1.863,0,0,1,.623.079,2.424,2.424,0,0,0,.6.118c.477.034.962.008,1.44.009q1.531,0,3.062.007.769,0,1.539,0a7.257,7.257,0,0,0,.734-.027c.232-.025.463-.062.7-.076.506-.03,1.02,0,1.526,0h1.486c.571,0,1.143,0,1.713,0,.27,0,.543.024.813.007A4.123,4.123,0,0,1,16.141,11v-.368h-.174a.184.184,0,0,0,0,.368h.174c.241,0,.231-.345,0-.368a1.928,1.928,0,0,0-.551.1,3.634,3.634,0,0,1-.7.005c-.508-.01-1.018,0-1.526,0-1,0-1.992,0-2.988,0-.477,0-.939.087-1.414.1-.51.018-1.022.008-1.533.007-1.035,0-2.07-.007-3.1-.009-.553,0-1.108.012-1.661,0a2.459,2.459,0,0,1-.71-.123,2.2,2.2,0,0,0-.69-.081.184.184,0,0,0,0,.368" transform="translate(270.629 1605.904)" fill="#797979" stroke="#797979" stroke-width="0.5"/>
    <rect id="Rectangle_6278" data-name="Rectangle 6278" width="15.233" height="0.584" transform="translate(271.715 1616.536)" fill="#797979" stroke="#797979" stroke-width="0.5"/>
    <path id="Path_14909" data-name="Path 14909" d="M19.443,16.529c.285-.211.516-.487.807-.69l-.27-.11a3.11,3.11,0,0,1,.018,1c-.022.387.009.775.008,1.162,0,.4-.07.8-.1,1.2-.027.417-.024.835-.024,1.253a.184.184,0,0,0,.367,0v-.068a.184.184,0,0,0-.367,0v.068h.367c0-.418,0-.836.024-1.253s.1-.841.1-1.269c0-.384-.029-.766,0-1.149a3.18,3.18,0,0,0-.035-1.043.185.185,0,0,0-.27-.11c-.292.2-.521.479-.807.69-.188.139-.005.458.186.318" transform="translate(259.533 1602.922)" fill="#797979" stroke="#797979" stroke-width="0.5"/>
    <path id="Path_14910" data-name="Path 14910" d="M1.838,10.37a1.246,1.246,0,0,0-.349.029.185.185,0,0,0-.128.226c.128.349.53.184.806.213.254.027.5.079.76.1.283.019.569.008.853.008.577,0,1.154.009,1.73,0,.256,0,.513-.018.769-.005s.485.095.733.108c.578.03,1.167,0,1.746,0a4.887,4.887,0,0,1,.814.033,4.722,4.722,0,0,0,.805.068c.524,0,1.044.009,1.567.033a4.689,4.689,0,0,0,1.416-.123,3.3,3.3,0,0,1,.932-.123,5.893,5.893,0,0,0,.6-.008c.19-.015.379-.032.569-.031.13,0,.341-.013.435.1.155.179.415-.082.26-.26-.2-.231-.6-.211-.875-.2-.357.015-.7.038-1.061.033a2.917,2.917,0,0,0-.707.073,5.816,5.816,0,0,1-.782.17,13.321,13.321,0,0,1-1.481-.027A10.824,10.824,0,0,1,9.7,10.731a10.276,10.276,0,0,0-1.637-.053c-.28,0-.56,0-.84,0a5.284,5.284,0,0,1-.752-.09,12.392,12.392,0,0,0-1.608-.012c-.622,0-1.25.026-1.871,0-.285-.014-.562-.084-.845-.1a1.554,1.554,0,0,0-.243.013c-.041,0-.082.008-.123.009-.083,0-.092-.033-.066.039l-.128.226a.884.884,0,0,1,.251-.016.184.184,0,0,0,0-.368" transform="translate(270.467 1606.065)" fill="#797979" stroke="#797979" stroke-width="0.5"/>
    <path id="Path_14911" data-name="Path 14911" d="M19.743,16.345c.126-.155.321-.182.478-.295.1-.072.223-.3.356-.272l-.128-.128a2.568,2.568,0,0,1,0,.994,8.64,8.64,0,0,0-.1,1.135c0,.2.011.395,0,.591s-.049.4-.075.6a9.708,9.708,0,0,0-.028,1.255.184.184,0,0,0,.368,0,9.06,9.06,0,0,1,.032-1.28,5.526,5.526,0,0,0,.072-.575c.009-.22,0-.441,0-.661a9.793,9.793,0,0,1,.1-1.12,2.726,2.726,0,0,0-.022-1.037.184.184,0,0,0-.128-.128.553.553,0,0,0-.577.241c-.174.191-.447.214-.615.42-.148.182.111.444.26.26" transform="translate(259.373 1602.975)" fill="#797979"/>
  </g>
</svg>
