<svg xmlns="http://www.w3.org/2000/svg" width="137.519" height="39.116" viewBox="0 0 137.519 39.116">
  <g id="Group_13215" data-name="Group 13215" transform="translate(-169.981 -683.568)">
    <g id="Group_13205" data-name="Group 13205" transform="translate(256.266 691.691)">
      <rect id="Rectangle_5696" data-name="Rectangle 5696" width="0.712" height="14.031" transform="translate(0 1.612)" fill="#fff"/>
      <text id="ARCHIVES" transform="translate(6.233 11)" fill="#fff" font-size="10" font-family="SegoeUI, Segoe UI"><tspan x="0" y="0">ARCHIVES</tspan></text>
    </g>
    <g id="Group_13217" data-name="Group 13217" transform="translate(169.981 683.568)">
      <g id="Group_9223" data-name="Group 9223" transform="translate(0.189 0.189)">
        <path id="Path_10276" data-name="Path 10276" d="M59.34,52.841c-.67.017-.877-.364-.905-.709a2.133,2.133,0,0,1,.172-.944c-1.33-.347-2.811-.762-4.415-1.253A2.09,2.09,0,0,1,53,50.351c-.1-.014-.164-.109.062-.43.028-.042.1-.139.2-.277-1.151-.365-2.363-.767-3.619-1.212C47.2,50.669,44.4,52.91,42.862,52.91c-.615,0-1.188-.41-1.188-1.392a13.56,13.56,0,0,1,2.556-5.151q-1.91-.784-3.9-1.69c-3,3.19-4.392,6.083-4.392,8.144,0,2.623,2.453,2.952,3.736,2.952,3.385,0,4.89-1.562,5.558-1.562s-.4,1.587-1.405,2.222c-8.392,5.073-15.29,9.44-15.29,13.482,0,1.83,1.689,1.95,2.972,1.95s7.565-.8,17.178-15.7a6.707,6.707,0,0,1,1.9-1.615c.711-.512,3-2.187,3.456-2.189s.436.2.419.4a8.423,8.423,0,0,0-.334,1.734,1.957,1.957,0,0,0,2.116,1.71c2.92,0,5.051-2.08,6.8-3.955-.579-.122-1.239-.268-1.975-.44A4.055,4.055,0,0,1,59.34,52.841ZM33.407,69.055a.756.756,0,0,1-.84-.861c0-1.8,6.233-6.5,6.973-6.507.19,0,.24.074.24.225C39.789,63.351,35.236,69.055,33.407,69.055ZM66.644,53.014c0,1.256.417,3.056,3.339,3.056a6.317,6.317,0,0,0,4.359-2.135,73.133,73.133,0,0,1-7.7-1.015C66.646,52.95,66.644,52.982,66.644,53.014Zm21.441.559c-.006,1.053.253,2.737,2.041,2.737,3.529,0,7.919-4.471,8.128-4.5.147-.023.17.038.17.18,0,.16-.5,1.93-5.657,8.2S85.108,68.9,85.108,70.256a1.789,1.789,0,0,0,1.68,1.842c.532,0,2.784-.122,8.15-8.845,3.83-6.227,5.637-10.069,7.67-13.164C98.938,51.688,94.322,52.729,88.085,53.572Zm-10.593.533c-.382.58-.708,1.072-.929,1.419,0,0-.274.329.136.329h3.823a.655.655,0,0,0,.464-.329c.047-.066.438-.663.937-1.429Q79.78,54.174,77.492,54.106Z" transform="translate(-28.537 -33.361)" fill="#fff"/>
        <path id="Path_10277" data-name="Path 10277" d="M109,39.495c0-.881,1.783-2.684,2.581-2.684a1.111,1.111,0,0,1,.963,1.169,3.043,3.043,0,0,1-2.212,2.62C109.994,40.6,109,40.149,109,39.495Zm-50.27,7.466c1.308.26,2.629.488,3.958.673a8.017,8.017,0,0,0-1.3,2.056c-1.33-.347-2.811-.762-4.415-1.253a7.772,7.772,0,0,0,1.182-.916Q58.444,47.232,58.726,46.961Zm51.519-4.825c0,.368-.409,1.187-2.006,2.743a26.15,26.15,0,0,0-2.856,3.711c-3.67,1.6-8.286,2.64-14.523,3.483,0-.129.006-.249.015-.355a11.739,11.739,0,0,1,.355-1.6c0-.122-.02-.266-.185-.266a6.457,6.457,0,0,1-1.414.321c-2.238,0-1.5-1.529-2.1-1.529a.556.556,0,0,0-.436.272c-.072.11-1.434,2.2-2.395,3.678q-2.142.078-4.43.01c1.04-1.585,2.5-3.836,3.407-5.625a58.3,58.3,0,0,0,8.218-2.3c-.01.127-.014.258-.014.4,0,1.31.408,1.966.755,1.966a1.98,1.98,0,0,0,1.2-.835c3.718-4.444,6.7-4.944,7.775-4.944a1.056,1.056,0,0,1,1.022,1.192c0,2.195-3.876,5.415-6.347,6.143-.672.2-1.026.616-1.026,1.065A1.135,1.135,0,0,0,96.525,50.9c2.621,0,5.529-3.521,7.946-6.144s4.341-3.561,4.915-3.561A.867.867,0,0,1,110.245,42.136ZM96.631,46.7a.3.3,0,0,0,.317.293c.767,0,3.177-2.185,3.177-3.109,0-.136-.158-.225-.272-.225C99.043,43.664,96.631,45.985,96.631,46.7ZM65.9,47.994q1.286.111,2.6.168a16.7,16.7,0,0,0-2.678,2.582c-.579-.122-1.239-.268-1.975-.44A9.459,9.459,0,0,0,65.9,47.994Zm14.45-.434a16.913,16.913,0,0,1-3.236,4.877,73.136,73.136,0,0,1-7.7-1.015,19.066,19.066,0,0,1,.57-3.211q2.158.04,4.363-.066a4.582,4.582,0,0,0-.886,2.2.724.724,0,0,0,.817.728c1.571,0,2.879-1.539,3.8-3.218Q79.216,47.728,80.353,47.56ZM43.745,42.517c1.254.482,2.573.964,3.947,1.432q-.364.465-.687.92-1.91-.784-3.9-1.69C43.311,42.958,43.523,42.738,43.745,42.517Zm13.391,4.107c-.465.638-.869,1.2-1.1,1.523-1.151-.365-2.363-.767-3.619-1.212.429-.393.845-.785,1.241-1.166C54.8,46.074,55.959,46.363,57.136,46.623Z" transform="translate(-31.312 -31.862)" fill="#fff"/>
        <path id="Path_10278" data-name="Path 10278" d="M60.981,40.5c0-.259-.368-.47-.818-.47a5.4,5.4,0,0,0-3.215,1.453c-.441.427-1.648,1.685-3.143,3.121,1.142.305,2.3.6,3.482.855,1.058-1.454,2.429-3.313,2.8-3.729C60.674,41.053,60.981,40.726,60.981,40.5Zm3.367-5.577c.142.02.19-.006.252-.11.086-.142,2.172-3.851,2.172-3.851a.071.071,0,0,0-.036-.117A3.585,3.585,0,0,0,65.56,30.7c-3.124,0-9.936,1.549-16.789,6.532A40.788,40.788,0,0,0,43.9,41.352c1.254.482,2.573.964,3.947,1.432a23.758,23.758,0,0,1,2.595-2.817c3.87-3.564,8.354-5.3,11.139-5.3A20.229,20.229,0,0,1,64.348,34.924Zm28.043,5.043c-1.043,0-3.088,2.5-3.455,2.5-.3,0-.645-1.144-.983-1.6-.493-.656-1.169-.818-3.094-.818-.963,0-1.515.081-2.376.081-.978,0-1.208-.04-1.391-.471s-3.052-7.985-9.585-7.985c-1.454,0-2.99.634-2.99,2.6s1.177,4.659,6.124,6.307c.121.04.245.057.245.158,0,.21-2.335,3.364-4.444,3.733a.361.361,0,0,1-.41-.389,8.34,8.34,0,0,0,.328-1.884c0-1-.308-2.416-2.211-2.416-1.84,0-3.948.879-9.274,6.012,1.308.26,2.629.488,3.958.673,1.657-2.011,4.194-3.99,4.836-4.006.4-.011.56.158.574.329.059.708-.958,1.2-1.59,1.66-.737.532-.975.7-.9,1.147.043.245.4.311.442.745a.96.96,0,0,1-.141.485q1.286.11,2.6.168a2.045,2.045,0,0,1,1.086-.371c.3,0,.416.133.416.324a.529.529,0,0,1-.014.1q2.158.04,4.363-.066a10.454,10.454,0,0,1,2.317-2.658c.847-.512,1.31-1.015,1.3-1.3s-.612-.674-.673-.956c-.07-.327.193-.5.782-.355.842.213,1.454.24,1.473.859a12.026,12.026,0,0,1-1.469,4.119q1.132-.121,2.269-.29a11.259,11.259,0,0,0,1.138-3.915.345.345,0,0,1,.385-.393c.327,0,1.235.1,1.637.136a1.146,1.146,0,0,1,1.013,1.219,6.547,6.547,0,0,1-.852,2.375,58.3,58.3,0,0,0,8.218-2.3c.116-1.732.969-2.439.969-3.009C93.011,40.124,92.849,39.967,92.391,39.967Zm-13.63.124c-1.447,0-6.966-2.15-6.966-4.894a1.308,1.308,0,0,1,1.424-1.371c3.958,0,5.931,5.629,5.931,5.986C79.15,39.991,79.045,40.091,78.761,40.091Z" transform="translate(-31.462 -30.698)" fill="#fff"/>
      </g>
      <path id="Path_10279" data-name="Path 10279" d="M61.222,49.764a6.982,6.982,0,0,1-1.293.975l.478.147a8.659,8.659,0,0,0,1.077-.853c.232-.225.454-.441.674-.652q-.226-.041-.451-.089Z" transform="translate(-34.327 -34.05)" fill="#fff"/>
      <path id="Path_10280" data-name="Path 10280" d="M100.776,52.407a1.331,1.331,0,0,0-.368.1,3.328,3.328,0,0,1-1.047.226c-1.332,0-1.482-.542-1.6-.978-.069-.244-.153-.551-.5-.551a.741.741,0,0,0-.594.357l-.823,1.264c-.478.735-1.127,1.732-1.645,2.526l.461-.015c.428-.656.953-1.464,1.5-2.3l.82-1.261a.384.384,0,0,1,.281-.189c.046,0,.068.023.137.274.13.47.347,1.256,1.966,1.256a3.671,3.671,0,0,0,1.169-.246,2.21,2.21,0,0,1,.236-.072.61.61,0,0,1,0,.075,1.792,1.792,0,0,1-.094.359,4.837,4.837,0,0,0-.261,1.226c-.008.124-.013.257-.015.393l.379-.049c0-.116,0-.224.011-.32a4.479,4.479,0,0,1,.244-1.134,1.722,1.722,0,0,0,.113-.474C101.148,52.453,100.888,52.407,100.776,52.407Z" transform="translate(-40.854 -34.413)" fill="#fff"/>
      <path id="Path_10281" data-name="Path 10281" d="M84.958,50.464a9.186,9.186,0,0,1-1.343,1.864,3.183,3.183,0,0,1-2.233,1.143.549.549,0,0,1-.628-.546,4.619,4.619,0,0,1,.925-2.2c-.154.01-.308.017-.461.023a4.539,4.539,0,0,0-.841,2.191.91.91,0,0,0,1.006.912,3.545,3.545,0,0,0,2.5-1.257,10.014,10.014,0,0,0,1.528-2.177Q85.185,50.441,84.958,50.464Z" transform="translate(-38.221 -34.264)" fill="#fff"/>
      <path id="Path_10282" data-name="Path 10282" d="M65.456,52.181l.366.1a7.976,7.976,0,0,1,1.34-2.076c-.147-.019-.293-.039-.44-.059A7.984,7.984,0,0,0,65.456,52.181Z" transform="translate(-35.38 -34.212)" fill="#fff"/>
      <path id="Path_10283" data-name="Path 10283" d="M54.356,48.958l.4.141c.416-.385.834-.78,1.25-1.181l-.421-.113C55.191,48.181,54.779,48.57,54.356,48.958Z" transform="translate(-33.265 -33.767)" fill="#fff"/>
      <path id="Path_10284" data-name="Path 10284" d="M70.525,50.6a5.7,5.7,0,0,1-.7.943,12.483,12.483,0,0,1-1.377,1.329c.157.036.308.073.459.108A13.838,13.838,0,0,0,70.1,51.8a5.312,5.312,0,0,0,.827-1.16Z" transform="translate(-35.949 -34.3)" fill="#fff"/>
      <path id="Path_10285" data-name="Path 10285" d="M71.384,52.846c-.157.168-.317.342-.481.519l.431.091c.111-.119.22-.238.327-.355a10.894,10.894,0,0,1,2.489-2.259c-.22-.007-.443-.017-.663-.028A15.573,15.573,0,0,0,71.384,52.846Z" transform="translate(-36.417 -34.34)" fill="#fff"/>
      <path id="Path_10286" data-name="Path 10286" d="M47.7,46.458l.36.15c.219-.308.452-.618.7-.931l-.38-.13C48.138,45.854,47.911,46.159,47.7,46.458Z" transform="translate(-31.997 -33.337)" fill="#fff"/>
      <path id="Path_10287" data-name="Path 10287" d="M107.668,51c0-.389.334-.72.89-.884,2.442-.721,6.482-3.975,6.482-6.324h-.377c0,2.128-3.874,5.272-6.212,5.963-.726.214-1.158.679-1.158,1.245Z" transform="translate(-43.348 -33.003)" fill="#fff"/>
      <path id="Path_10288" data-name="Path 10288" d="M106.625,46.25c-.488.478-.991,1.022-1.511,1.642a1.865,1.865,0,0,1-1.052.768c-.192,0-.569-.537-.569-1.778,0-.166.007-.321.02-.47l-.387.141c-.006.107-.011.215-.011.329,0,1.481.491,2.153.946,2.153.511,0,1.06-.565,1.341-.9.473-.565.934-1.066,1.38-1.509Z" transform="translate(-42.553 -33.471)" fill="#fff"/>
      <path id="Path_10289" data-name="Path 10289" d="M107.61,45.831c3.124-3.1,5.519-3.366,6.249-3.366.795,0,.834.835.834,1h.377a1.241,1.241,0,0,0-1.211-1.38c-.967,0-3.344.363-6.408,3.369Z" transform="translate(-43.378 -32.678)" fill="#fff"/>
      <path id="Path_10290" data-name="Path 10290" d="M112.862,45.455a.452.452,0,0,0-.46-.413c-.892,0-3.408,2.385-3.408,3.23a.489.489,0,0,0,.5.482C110.383,48.754,112.862,46.494,112.862,45.455Zm-3.493,2.817c0-.64,2.354-2.853,3.033-2.853a.124.124,0,0,1,.084.042c0,.808-2.318,2.916-2.989,2.916C109.444,48.377,109.369,48.344,109.369,48.272Z" transform="translate(-43.672 -33.241)" fill="#fff"/>
      <path id="Path_10291" data-name="Path 10291" d="M127.034,36.579c-.931,0-2.769,1.9-2.769,2.87,0,.78,1.082,1.294,1.519,1.294a3.219,3.219,0,0,0,2.4-2.809A1.29,1.29,0,0,0,127.034,36.579Zm-1.249,3.789c-.28,0-1.142-.413-1.142-.919a4.049,4.049,0,0,1,2.391-2.493c.457,0,.775.515.775.978A2.886,2.886,0,0,1,125.784,40.368Z" transform="translate(-46.581 -31.629)" fill="#fff"/>
      <path id="Path_10292" data-name="Path 10292" d="M88.736,54.981c.149.006.3.011.441.015a62.261,62.261,0,0,0,3.421-5.68c-.156.032-.312.065-.47.094C91.19,51.224,89.716,53.492,88.736,54.981Z" transform="translate(-39.814 -34.055)" fill="#fff"/>
      <path id="Path_10293" data-name="Path 10293" d="M42.877,44.417c.119.057.239.112.358.164.208-.22.427-.443.654-.668-.128-.049-.255-.1-.381-.147C43.29,43.985,43.079,44.2,42.877,44.417Z" transform="translate(-31.079 -32.998)" fill="#fff"/>
      <path id="Path_10294" data-name="Path 10294" d="M59.933,48.876c-.47.646-.873,1.2-1.093,1.507l.379.121c.246-.341.652-.9,1.115-1.536Z" transform="translate(-34.119 -33.971)" fill="#fff"/>
      <path id="Path_10295" data-name="Path 10295" d="M75.856,51.275a15.475,15.475,0,0,0-.476,2.79c.125.023.251.049.376.07a14.676,14.676,0,0,1,.466-2.773c.058-.246.091-.384.107-.471-.129,0-.255,0-.382-.008C75.926,50.98,75.891,51.128,75.856,51.275Z" transform="translate(-37.27 -34.353)" fill="#fff"/>
      <path id="Path_10296" data-name="Path 10296" d="M88.076,50.113A19.551,19.551,0,0,1,86.8,52.451a14.113,14.113,0,0,1-2,2.487c.159.012.322.028.482.039a17.491,17.491,0,0,0,3.228-4.928C88.37,50.071,88.222,50.093,88.076,50.113Z" transform="translate(-39.065 -34.194)" fill="#fff"/>
      <path id="Path_10297" data-name="Path 10297" d="M107.292,50.658a1.293,1.293,0,0,0,1.249,1.405,4.24,4.24,0,0,0,2.235-.565c1.812-.963,3.643-2.975,5.312-4.81l.746-.817c2.416-2.62,4.29-3.5,4.776-3.5v-.377c-.662,0-2.62.984-5.054,3.624l-.748.818c-2.242,2.467-4.785,5.264-7.057,5.264a.95.95,0,0,1-1.083-1.041Z" transform="translate(-43.348 -32.66)" fill="#fff"/>
      <path id="Path_10298" data-name="Path 10298" d="M123.965,42.369a.681.681,0,0,1,.671.754c0,.166-.139.845-1.95,2.609a26.735,26.735,0,0,0-3.031,3.978c.215-.092.426-.185.632-.275A25.773,25.773,0,0,1,122.949,46c1.35-1.315,2.064-2.31,2.064-2.878a1.06,1.06,0,0,0-1.048-1.131Z" transform="translate(-45.703 -32.66)" fill="#fff"/>
      <path id="Path_10299" data-name="Path 10299" d="M66.322,54.174c-.441.011-.681-.171-.711-.537a2,2,0,0,1,.168-.88l-.366-.1a2.339,2.339,0,0,0-.177,1.008.951.951,0,0,0,1.1.881,4.337,4.337,0,0,0,1.96-1.174c-.151-.035-.3-.072-.459-.108A3.77,3.77,0,0,1,66.322,54.174Z" transform="translate(-35.337 -34.692)" fill="#fff"/>
      <path id="Path_10300" data-name="Path 10300" d="M58.432,51.525a.28.28,0,0,0,.231.166,2.45,2.45,0,0,0,1.455-.53l-.478-.147a2,2,0,0,1-.818.3,1.032,1.032,0,0,1,.083-.134c.03-.042.111-.158.233-.325l-.379-.121c-.081.116-.139.2-.163.23C58.422,51.215,58.371,51.386,58.432,51.525Z" transform="translate(-34.037 -34.325)" fill="#fff"/>
      <path id="Path_10301" data-name="Path 10301" d="M40.44,65.456c-.491,0-2.4,1.367-3.882,2.628-1.224,1.04-3.277,2.95-3.277,4.069a.937.937,0,0,0,1.03,1.048c.851,0,2.061-1.036,2.926-1.906,1.721-1.731,3.641-4.418,3.636-5.425a.425.425,0,0,0-.108-.307A.441.441,0,0,0,40.44,65.456Zm.056.418c0,.814-1.745,3.364-3.527,5.155-1.134,1.141-2.1,1.795-2.658,1.795-.451,0-.652-.206-.652-.671,0-1.662,6.075-6.3,6.787-6.319l.048,0,0,.034Z" transform="translate(-29.251 -37.129)" fill="#fff"/>
      <path id="Path_10302" data-name="Path 10302" d="M45.909,53.479c1.566,0,4.238-2.071,6.975-4.6l-.4-.141c-2.39,2.19-5.108,4.36-6.576,4.36-.627,0-1-.449-1-1.2a13.436,13.436,0,0,1,2.547-5.077l-.36-.15c-1.7,2.392-2.562,4.52-2.562,5.226A1.388,1.388,0,0,0,45.909,53.479Z" transform="translate(-31.394 -33.551)" fill="#fff"/>
      <path id="_Path_31.12" data-name="&lt;Path&gt;31.12" d="M28.68,72.642c0-3.837,6.3-7.941,15.2-13.321l-.2-.321C34.678,64.443,28.3,68.608,28.3,72.642Z" transform="translate(-28.303 -35.9)" fill="#fff"/>
      <path id="_Path_-54.16" data-name="&lt;Path&gt;-54.16" d="M41.372,55.563c-1.326,0-3.547-.359-3.547-2.76,0-1.88,1.232-4.742,4.375-8.068-.119-.053-.239-.108-.358-.164-3.158,3.376-4.395,6.3-4.395,8.232,0,1.994,1.43,3.138,3.924,3.138Z" transform="translate(-30.045 -33.151)" fill="#fff"/>
      <path id="_Path_Godrej_Red_Dark_V" data-name="&lt;Path&gt; Godrej Red Dark V" d="M46.545,58.792c.835-.525,1.839-1.787,1.687-2.313a.366.366,0,0,0-.379-.258,2.5,2.5,0,0,0-.971.372,9.21,9.21,0,0,1-4.587,1.188v.377a9.549,9.549,0,0,0,4.76-1.23,2.721,2.721,0,0,1,.8-.336c.02,0,.028.014.028.037a3.824,3.824,0,0,1-1.533,1.842" transform="translate(-30.968 -35.37)" fill="#fff"/>
      <path id="_Path_157.25" data-name="&lt;Path&gt;157.25" d="M59.923,56.257a2.153,2.153,0,0,0,2.3,1.9c3.042,0,5.239-2.187,7.015-4.1l-.431-.091c-1.7,1.816-3.789,3.813-6.585,3.813A1.771,1.771,0,0,1,60.3,56.257Z" transform="translate(-34.326 -34.94)" fill="#fff"/>
      <path id="_Path_-28.89" data-name="&lt;Path&gt;-28.89" d="M28.3,71.676c0,2.14,2.136,2.14,3.161,2.14.695,0,2.626-.225,5.574-2.3C40.755,68.9,44.711,64.362,48.8,58.026a4.786,4.786,0,0,1,1.412-1.259l.444-.306.167-.122c2.326-1.68,2.973-2.005,3.179-2.033.168-.023.206.015.22.026l.266-.266c-.119-.122-.232-.138-.487-.138-.349,0-1.3.59-3.4,2.1l-.168.121-.435.3a5.026,5.026,0,0,0-1.517,1.364c-9.591,14.862-15.86,15.615-17.02,15.615-1.672,0-2.784-.3-2.784-1.761Z" transform="translate(-28.303 -34.933)" fill="#fff"/>
      <path id="_Path_175.84" data-name="&lt;Path&gt;175.84" d="M78.9,57.811c-2.119,0-3.151-.937-3.151-2.867,0-.019,0-.04,0-.06-.125-.022-.25-.047-.376-.07,0,.044,0,.087,0,.13,0,2.122,1.221,3.244,3.528,3.244a6.6,6.6,0,0,0,4.588-2.3c-.16-.011-.323-.027-.482-.039A6.069,6.069,0,0,1,78.9,57.811Z" transform="translate(-37.269 -35.102)" fill="#fff"/>
      <path id="_Path_130.97" data-name="&lt;Path&gt;130.97" d="M92.066,57.63c-.131.183-.247.249-.312.249H87.928c0-.007.008-.014.012-.019l.006-.008.635-.97c.114-.176.236-.36.363-.555-.145,0-.292-.008-.441-.015-.083.127-.163.248-.238.362,0,0-.619.951-.626.959a.534.534,0,0,0-.122.307.28.28,0,0,0,.028.125c.04.088.141.191.385.191h3.823a.808.808,0,0,0,.618-.406c.05-.07.446-.677,1.013-1.546l-.461.015C92.465,57.024,92.108,57.57,92.066,57.63Z" transform="translate(-39.582 -35.386)" fill="#fff"/>
      <path id="_Path_135" data-name="&lt;Path&gt;135" d="M104.091,58.209a1.644,1.644,0,0,1-1.252-.482,3.1,3.1,0,0,1-.6-2.09l-.379.049v.023a3.332,3.332,0,0,0,.7,2.276,2,2,0,0,0,1.528.6Z" transform="translate(-42.314 -35.259)" fill="#fff"/>
      <path id="_Path_100.1" data-name="&lt;Path&gt;100.1" d="M60.3,56.282a4.03,4.03,0,0,1,.21-1.177,3.347,3.347,0,0,0,.117-.49l.008-.1a.533.533,0,0,0-.124-.413l-.131.13-.135.135a.151.151,0,0,1,.03.116,1.022,1.022,0,0,1-.028.145c-.011.047-.047.2-.1.372a4.472,4.472,0,0,0-.225,1.286Z" transform="translate(-34.326 -34.966)" fill="#fff"/>
      <path id="_Path_51.07" data-name="&lt;Path&gt;51.07" d="M98.841,73.667a1.661,1.661,0,0,1-.278-.963c0-.924,1.355-2.522,4.057-5.709,1.023-1.21,2.185-2.578,3.559-4.248,1.84-2.233,3.086-3.894,3.929-5.117l-.391-.1c-.831,1.2-2.049,2.816-3.83,4.976-1.372,1.667-2.532,3.037-3.555,4.243-2.846,3.359-4.146,4.892-4.146,5.953a2.007,2.007,0,0,0,.419,1.273Z" transform="translate(-41.614 -35.62)" fill="#fff"/>
      <path id="_Path_-19.14" data-name="&lt;Path&gt;-19.14" d="M98.7,72.769a1.992,1.992,0,0,0,1.448.758c1.842,0,4.715-3.091,8.311-8.936,1.966-3.2,3.481-5.881,4.816-8.251,1.292-2.293,1.97-3.591,3.019-5.154-.206.091-.418.183-.632.275-.958,1.481-1.549,2.626-2.715,4.694-1.333,2.365-2.845,5.046-4.808,8.236-4.686,7.62-7.017,8.757-7.99,8.757a1.642,1.642,0,0,1-1.212-.691Z" transform="translate(-41.712 -34.411)" fill="#fff"/>
      <path id="_Path_0" data-name="&lt;Path&gt; 0" d="M111.331,56.813c1.742-2.522,1.771-3.188,1.771-3.2A.382.382,0,0,0,113,53.31a.316.316,0,0,0-.28-.058c-.077.023-.149.061-.589.441-1.283,1.111-4.693,4.06-7.515,4.06v.377c2.963,0,6.449-3.016,7.762-4.152.125-.108.243-.21.329-.28a13.476,13.476,0,0,1-1.763,3.017Z" transform="translate(-42.838 -34.802)" fill="#fff"/>
      <path id="Path_10303" data-name="Path 10303" d="M92.243,44.672l-.188-.019c-.468-.047-1.176-.119-1.469-.119a.53.53,0,0,0-.572.582,11.25,11.25,0,0,1-1.169,3.946c.147-.02.294-.042.441-.064a11.15,11.15,0,0,0,1.1-3.882c0-.159.045-.2.2-.2.274,0,1,.073,1.432.117l.188.019a.954.954,0,0,1,.842,1.031,6.759,6.759,0,0,1-.9,2.42c.157-.029.313-.062.47-.094a6.372,6.372,0,0,0,.806-2.327A1.334,1.334,0,0,0,92.243,44.672Z" transform="translate(-39.835 -33.144)" fill="#fff"/>
      <path id="Path_10304" data-name="Path 10304" d="M79.738,34.331a1.487,1.487,0,0,0-1.613,1.558c0,2.92,5.659,5.083,7.154,5.083.5,0,.579-.293.579-.468C85.858,40.132,83.89,34.331,79.738,34.331Zm5.54,6.264c-1.328,0-6.777-2.114-6.777-4.706a1.123,1.123,0,0,1,1.236-1.183c3.756,0,5.714,5.422,5.742,5.8C85.48,40.55,85.48,40.6,85.279,40.6Z" transform="translate(-37.793 -31.201)" fill="#fff"/>
      <path id="Path_10305" data-name="Path 10305" d="M75.491,50.14a2.452,2.452,0,0,0-1.4.546c.22.011.443.021.663.028a1.658,1.658,0,0,1,.733-.2c.227,0,.227.078.227.136a.812.812,0,0,1-.015.089c.127,0,.253.006.382.008a.6.6,0,0,0,.011-.1C76.095,50.533,76.051,50.14,75.491,50.14Z" transform="translate(-37.025 -34.212)" fill="#fff"/>
      <path id="Path_10306" data-name="Path 10306" d="M84.065,47.015c.884-.533,1.4-1.082,1.392-1.469a1.127,1.127,0,0,0-.4-.634,1.315,1.315,0,0,1-.278-.355.137.137,0,0,1,.015-.13c.053-.052.225-.083.535,0l.379.089c.711.163.942.246.953.593a12.32,12.32,0,0,1-1.507,4.137q.227-.023.457-.05a11.806,11.806,0,0,0,1.426-4.1c-.02-.669-.589-.8-1.246-.948l-.369-.087c-.516-.13-.767-.019-.889.1a.5.5,0,0,0-.123.482,1.293,1.293,0,0,0,.375.535c.108.114.291.307.295.387,0,.153-.319.6-1.211,1.134a10.651,10.651,0,0,0-2.454,2.831c.153-.006.308-.014.461-.023A10.2,10.2,0,0,1,84.065,47.015Z" transform="translate(-38.42 -33.042)" fill="#fff"/>
      <path id="Path_10307" data-name="Path 10307" d="M63.452,42.652c0-.411-.507-.66-1.008-.66A5.6,5.6,0,0,0,59.1,43.5l-.69.692c-.612.618-1.509,1.524-2.535,2.507l.421.113c.811-.781,1.613-1.579,2.382-2.356l.684-.685a5.256,5.256,0,0,1,3.084-1.4c.37,0,.631.159.631.283Z" transform="translate(-33.554 -32.66)" fill="#fff"/>
      <path id="Path_10308" data-name="Path 10308" d="M63.9,42.807c0,.135-.3.471-.708.939l-.146.164c-.377.431-1.787,2.344-2.853,3.81l.4.091c1.052-1.442,2.383-3.25,2.735-3.651L63.47,44c.552-.627.8-.911.8-1.188Z" transform="translate(-34.377 -32.815)" fill="#fff"/>
      <path id="Path_10309" data-name="Path 10309" d="M55.69,37.957a23.338,23.338,0,0,0-4.5,3.255A23.985,23.985,0,0,0,48.537,44.1l.38.13a23.514,23.514,0,0,1,2.531-2.742,23.022,23.022,0,0,1,4.413-3.2Z" transform="translate(-32.157 -31.891)" fill="#fff"/>
      <path id="Path_10310" data-name="Path 10310" d="M73.766,46.352a.231.231,0,0,1-.072-.176,1.8,1.8,0,0,1,.072-.294,5.38,5.38,0,0,0,.255-1.588,3.315,3.315,0,0,0-.274-1.41,2.146,2.146,0,0,0-2.127-1.2c-1.974,0-4.184,1.023-9.5,6.155q.225.047.451.089c5.08-4.884,7.19-5.867,9.045-5.867a1.824,1.824,0,0,1,1.7.812,2.74,2.74,0,0,1,.321,1.417,5.059,5.059,0,0,1-.24,1.483,1.587,1.587,0,0,0-.087.4.61.61,0,0,0,.206.465Z" transform="translate(-34.745 -32.602)" fill="#fff"/>
      <path id="Path_10311" data-name="Path 10311" d="M76.206,46.911a.516.516,0,0,0,.424.111c2.191-.384,4.6-3.576,4.6-3.919l-.414.045c-.329.55-2.379,3.174-4.251,3.5a.134.134,0,0,1-.116-.03Z" transform="translate(-37.427 -32.871)" fill="#fff"/>
      <path id="Path_10312" data-name="Path 10312" d="M102.4,42.16a.8.8,0,0,0-.669-.244c-.731,0-1.774.98-2.613,1.767a6.91,6.91,0,0,1-.837.721,3.02,3.02,0,0,1-.419-.734,4.913,4.913,0,0,0-.421-.777c-.525-.7-1.223-.9-3.242-.9-.5,0-.89.022-1.268.044l.02.376c.372-.02.758-.042,1.247-.042,1.893,0,2.5.153,2.942.743a4.747,4.747,0,0,1,.38.713c.252.536.453.959.753.959.2,0,.429-.2,1.1-.832.708-.664,1.774-1.665,2.357-1.665.389,0,.431.1.431.355a1.759,1.759,0,0,1-.263.673,5.462,5.462,0,0,0-.711,2.407l.387-.141a5.065,5.065,0,0,1,.659-2.092,1.968,1.968,0,0,0,.305-.847A.769.769,0,0,0,102.4,42.16Z" transform="translate(-40.613 -32.645)" fill="#fff"/>
      <path id="Path_10313" data-name="Path 10313" d="M92.3,42l-1.108.039c-.993,0-1.087-.05-1.218-.357l-.346.147c.241.563.631.585,1.565.585l1.128-.039Z" transform="translate(-39.984 -32.6)" fill="#fff"/>
      <path id="Path_10314" data-name="Path 10314" d="M72.836,45.5c-.02-.24-.233-.516-.767-.5-.664.015-2.755,1.637-4.332,3.338-.069.075-.138.149-.2.223-.168.188-.342.39-.514.6.147.022.292.042.44.061.113-.134.23-.27.355-.411s.264-.29.4-.432c1.6-1.679,3.423-2.992,3.865-3,.224,0,.372.056.382.158a.368.368,0,0,1,0,.042c0,.446-.593.835-1.117,1.182l-.4.267-.02.015c-.657.475-.974.7-.974,1.136a1.146,1.146,0,0,0,.017.181.645.645,0,0,0,.226.359.618.618,0,0,1,.2.285h.384a.93.93,0,0,0-.317-.555c-.069-.067-.111-.111-.117-.151-.051-.307.053-.406.806-.949l.02-.014.382-.26C72.181,46.655,72.894,46.187,72.836,45.5Z" transform="translate(-35.678 -33.232)" fill="#fff"/>
      <path id="Path_10315" data-name="Path 10315" d="M71.172,50.028v.022a.977.977,0,0,1-.157.427l.406.034a1.034,1.034,0,0,0,.125-.521.485.485,0,0,0-.008-.051h-.384A.468.468,0,0,1,71.172,50.028Z" transform="translate(-36.438 -34.173)" fill="#fff"/>
      <path id="Path_10316" data-name="Path 10316" d="M86.987,39.706c-.773-1.885-3.758-8.035-9.731-8.035a2.926,2.926,0,0,0-2.961,1.617,3.048,3.048,0,0,0-.218,1.173c0,1.643.813,4.673,6.252,6.485l.069.022.011,0,.414-.045c0-.225-.206-.287-.317-.319l-.057-.017c-5.216-1.739-6-4.587-6-6.129a2.64,2.64,0,0,1,.2-1.056,2.707,2.707,0,0,1,2.6-1.357c5.738,0,8.632,5.971,9.382,7.8l.029.07.346-.147Z" transform="translate(-37.022 -30.694)" fill="#fff"/>
      <path id="Path_10317" data-name="Path 10317" d="M69.53,30.786a.268.268,0,0,0-.168-.156,3.134,3.134,0,0,0-.59-.121v.379a3,3,0,0,1,.338.062c-.741,1.315-2.041,3.624-2.1,3.731l-.016.023-.049,0-.086-.013a18.681,18.681,0,0,0-2.712-.249,15.03,15.03,0,0,0-6.77,2.1l.171.334a14.641,14.641,0,0,1,6.6-2.055,18.36,18.36,0,0,1,2.655.244l.09.013a.484.484,0,0,0,.25-.019.4.4,0,0,0,.189-.181c.086-.142,2.091-3.7,2.175-3.856A.272.272,0,0,0,69.53,30.786Z" transform="translate(-33.84 -30.473)" fill="#fff"/>
      <path id="Path_10318" data-name="Path 10318" d="M48.835,37.339c7.055-5.128,13.8-6.5,16.68-6.5a4.19,4.19,0,0,1,.648.038V30.5a4.509,4.509,0,0,0-.648-.036c-2.921,0-9.769,1.383-16.9,6.57a40.9,40.9,0,0,0-4.959,4.2c.126.05.253.1.381.147A40.726,40.726,0,0,1,48.835,37.339Z" transform="translate(-31.227 -30.464)" fill="#fff"/>
    </g>
  </g>
</svg>
